<svg width="23" height="13" viewBox="0 0 23 13" fill="none" xmlns="http://www.w3.org/2000/svg">
<path d="M22.0688 1.3401L20.9521 0.22344C20.8033 0.0743236 20.6319 0 20.4381 0C20.2448 0 20.0734 0.0743236 19.9246 0.22344L11.1459 9.0017L2.36756 0.223675C2.21868 0.0745585 2.04735 0.000234578 1.85379 0.000234578C1.66016 0.000234578 1.48882 0.0745585 1.34002 0.223675L0.223441 1.34041C0.0743237 1.48921 -9.80469e-08 1.66055 -1.0948e-07 1.85418C-1.20904e-07 2.04766 0.0745583 2.21899 0.223441 2.3678L10.6321 12.7767C10.7809 12.9256 10.9523 13 11.1459 13C11.3395 13 11.5106 12.9256 11.6593 12.7767L22.0688 2.3678C22.2176 2.21892 22.2916 2.04758 22.2916 1.85418C22.2916 1.66055 22.2176 1.48921 22.0688 1.3401Z" fill="url(#paint0_linear_1_30)"/>
<defs>
<linearGradient id="paint0_linear_1_30" x1="11.1458" y1="0" x2="11.1458" y2="13" gradientUnits="userSpaceOnUse">
<stop stop-color="#FFAA79"/>
<stop offset="0.526042" stop-color="#FD866C"/>
<stop offset="1" stop-color="#FF7C77"/>
</linearGradient>
</defs>
</svg>
